REM MD5 4542d931fc06b67a4628c455cf7b17b8
FILE "Smurfs, The (Europe) (En,Fr,De,Es,It,Nl).bin" BINARY
  TRACK 01 MODE2/2352
    INDEX 01 00:00:00
  TRACK 02 AUDIO
    INDEX 00 42:35:59
    INDEX 01 42:37:59
  TRACK 03 AUDIO
    INDEX 00 43:20:06
    INDEX 01 43:22:06
  TRACK 04 AUDIO
    INDEX 00 44:33:61
    INDEX 01 44:35:61
  TRACK 05 AUDIO
    INDEX 00 45:29:43
    INDEX 01 45:31:43
  TRACK 06 AUDIO
    INDEX 00 46:23:74
    INDEX 01 46:25:74
  TRACK 07 AUDIO
    INDEX 00 47:43:32
    INDEX 01 47:45:32
  TRACK 08 AUDIO
    INDEX 00 49:42:48
    INDEX 01 49:44:48
  TRACK 09 AUDIO
    INDEX 00 50:10:49
    INDEX 01 50:12:49
  TRACK 10 AUDIO
    INDEX 00 51:07:71
    INDEX 01 51:09:71
  TRACK 11 AUDIO
    INDEX 00 52:23:72
    INDEX 01 52:25:72
  TRACK 12 AUDIO
    INDEX 00 54:09:73
    INDEX 01 54:11:73
  TRACK 13 AUDIO
    INDEX 00 54:48:72
    INDEX 01 54:50:72
  TRACK 14 AUDIO
    INDEX 00 56:19:67
    INDEX 01 56:21:67
  TRACK 15 AUDIO
    INDEX 00 58:17:04
    INDEX 01 58:19:04
  TRACK 16 AUDIO
    INDEX 00 59:36:37
    INDEX 01 59:38:37
  TRACK 17 AUDIO
    INDEX 00 60:02:38
    INDEX 01 60:04:38
  TRACK 18 AUDIO
    INDEX 00 60:51:62
    INDEX 01 60:53:62
  TRACK 19 AUDIO
    INDEX 00 61:41:26
    INDEX 01 61:43:26
  TRACK 20 AUDIO
    INDEX 00 62:33:09
    INDEX 01 62:35:09
  TRACK 21 AUDIO
    INDEX 00 62:41:49
    INDEX 01 62:43:49
  TRACK 22 AUDIO
    INDEX 00 62:50:05
    INDEX 01 62:52:05
  TRACK 23 AUDIO
    INDEX 00 63:00:00
    INDEX 01 63:02:00
  TRACK 24 AUDIO
    INDEX 00 63:08:19
    INDEX 01 63:10:19
  TRACK 25 AUDIO
    INDEX 00 63:17:49
    INDEX 01 63:19:49
  TRACK 26 AUDIO
    INDEX 00 63:26:55
    INDEX 01 63:28:55
  TRACK 27 AUDIO
    INDEX 00 63:36:14
    INDEX 01 63:38:14
  TRACK 28 AUDIO
    INDEX 00 63:45:09
    INDEX 01 63:47:09
  TRACK 29 AUDIO
    INDEX 00 63:53:31
    INDEX 01 63:55:31
  TRACK 30 AUDIO
    INDEX 00 64:02:21
    INDEX 01 64:04:21
  TRACK 31 AUDIO
    INDEX 00 64:11:65
    INDEX 01 64:13:65
  TRACK 32 AUDIO
    INDEX 00 64:19:33
    INDEX 01 64:21:33
  TRACK 33 AUDIO
    INDEX 00 64:28:02
    INDEX 01 64:30:02
  TRACK 34 AUDIO
    INDEX 00 64:34:25
    INDEX 01 64:36:25
  TRACK 35 AUDIO
    INDEX 00 64:40:55
    INDEX 01 64:42:55
  TRACK 36 AUDIO
    INDEX 00 64:47:57
    INDEX 01 64:49:57
  TRACK 37 AUDIO
    INDEX 00 64:54:00
    INDEX 01 64:56:00
  TRACK 38 AUDIO
    INDEX 00 65:00:71
    INDEX 01 65:02:71
  TRACK 39 AUDIO
    INDEX 00 65:08:46
    INDEX 01 65:10:46
  TRACK 40 AUDIO
    INDEX 00 65:15:20
    INDEX 01 65:17:20
  TRACK 41 AUDIO
    INDEX 00 65:21:39
    INDEX 01 65:23:39
  TRACK 42 AUDIO
    INDEX 00 65:28:05
    INDEX 01 65:30:05
  TRACK 43 AUDIO
    INDEX 00 65:34:43
    INDEX 01 65:36:43
  TRACK 44 AUDIO
    INDEX 00 65:40:71
    INDEX 01 65:42:71
  TRACK 45 AUDIO
    INDEX 00 65:52:35
    INDEX 01 65:54:35
  TRACK 46 AUDIO
    INDEX 00 66:01:37
    INDEX 01 66:03:37
  TRACK 47 AUDIO
    INDEX 00 66:10:66
    INDEX 01 66:12:66
  TRACK 48 AUDIO
    INDEX 00 66:21:25
    INDEX 01 66:23:25
  TRACK 49 AUDIO
    INDEX 00 66:32:02
    INDEX 01 66:34:02
  TRACK 50 AUDIO
    INDEX 00 66:41:36
    INDEX 01 66:43:36
REM LEADOUT 69:49:46
